<svg xmlns="http://www.w3.org/2000/svg" xmlns:xlink="http://www.w3.org/1999/xlink" version="1.1" width="256" height="256" viewBox="0 0 256 256" xml:space="preserve">
<desc>Created with Fabric.js 1.7.22 - adjusted to white</desc>
<defs>
</defs>
<g transform="translate(128 128) scale(0.72 0.72)" style="">
	<g style="stroke: none; stroke-width: 0; stroke-dasharray: none; stroke-linecap: butt; stroke-linejoin: miter; stroke-miterlimit: 10; fill: none; fill-rule: nonzero; opacity: 1;" transform="translate(-175.05 -175.05000000000004) scale(3.89 3.89)" >
	<path d="M 76.982 90 H 20.154 c -5.698 0 -10.333 -4.636 -10.333 -10.333 s 4.635 -10.333 10.333 -10.333 h 56.828 c 1.763 0 3.196 1.435 3.196 3.197 s -1.434 3.196 -3.196 3.196 h -2.405 c -0.553 0 -1 -0.447 -1 -1 s 0.447 -1 1 -1 h 2.405 c 0.659 0 1.196 -0.537 1.196 -1.196 c 0 -0.66 -0.537 -1.197 -1.196 -1.197 H 20.154 c -4.595 0 -8.333 3.738 -8.333 8.333 S 15.56 88 20.154 88 h 56.828 c 0.659 0 1.196 -0.537 1.196 -1.196 c 0 -0.66 -0.537 -1.197 -1.196 -1.197 h -2.405 c -0.553 0 -1 -0.447 -1 -1 s 0.447 -1 1 -1 h 2.405 c 1.763 0 3.196 1.435 3.196 3.197 S 78.745 90 76.982 90 z" style="stroke: none; stroke-width: 1; stroke-dasharray: none; stroke-linecap: butt; stroke-linejoin: miter; stroke-miterlimit: 10; fill: #fff; fill-rule: nonzero; opacity: 1;" transform=" matrix(1 0 0 1 0 0) " stroke-linecap="round" />
	<path d="M 10.821 80.667 c -0.552 0 -1 -0.447 -1 -1 V 10.412 C 9.821 4.671 14.492 0 20.233 0 h 52.391 c 4.166 0 7.555 3.389 7.555 7.554 v 64.977 c 0 0.553 -0.447 1 -1 1 s -1 -0.447 -1 -1 V 7.554 C 78.179 4.492 75.687 2 72.624 2 H 20.233 c -4.639 0 -8.412 3.773 -8.412 8.412 v 69.255 C 11.821 80.22 11.374 80.667 10.821 80.667 z" style="stroke: none; stroke-width: 1; stroke-dasharray: none; stroke-linecap: butt; stroke-linejoin: miter; stroke-miterlimit: 10; fill: #fff; fill-rule: nonzero; opacity: 1;" transform=" matrix(1 0 0 1 0 0) " stroke-linecap="round" />
	<path d="M 20.154 71.334 c -0.552 0 -1 -0.447 -1 -1 V 18.473 c 0 -0.552 0.448 -1 1 -1 s 1 0.448 1 1 v 51.861 C 21.154 70.887 20.707 71.334 20.154 71.334 z" style="stroke: none; stroke-width: 1; stroke-dasharray: none; stroke-linecap: butt; stroke-linejoin: miter; stroke-miterlimit: 10; fill: #fff; fill-rule: nonzero; opacity: 1;" transform=" matrix(1 0 0 1 0 0) " stroke-linecap="round" />
	<path d="M 74.577 85.606 h -53.84 c -3.275 0 -5.939 -2.664 -5.939 -5.939 s 2.665 -5.939 5.939 -5.939 h 53.84 c 0.553 0 1 0.447 1 1 v 9.879 C 75.577 85.159 75.13 85.606 74.577 85.606 z M 20.737 75.728 c -2.172 0 -3.939 1.768 -3.939 3.939 s 1.767 3.939 3.939 3.939 h 52.84 v -7.879 H 20.737 z" style="stroke: none; stroke-width: 1; stroke-dasharray: none; stroke-linecap: butt; stroke-linejoin: miter; stroke-miterlimit: 10; fill: #fff; fill-rule: nonzero; opacity: 1;" transform=" matrix(1 0 0 1 0 0) " stroke-linecap="round" />
	<path d="M 20.154 9.999 c -0.552 0 -1 -0.448 -1 -1 V 1 c 0 -0.552 0.448 -1 1 -1 s 1 0.448 1 1 v 7.999 C 21.154 9.551 20.707 9.999 20.154 9.999 z" style="stroke: none; stroke-width: 1; stroke-dasharray: none; stroke-linecap: butt; stroke-linejoin: miter; stroke-miterlimit: 10; fill: #fff; fill-rule: nonzero; opacity: 1;" transform=" matrix(1 0 0 1 0 0) " stroke-linecap="round" />
	<path d="M 54.997 43.923 H 41.274 c -2.362 0 -4.284 -1.922 -4.284 -4.284 v -7.225 c -2.613 -1.642 -4.212 -4.508 -4.212 -7.621 c 0 -4.334 3.104 -8.038 7.308 -8.836 c 1.518 -3.04 4.619 -4.974 8.05 -4.974 s 6.531 1.935 8.05 4.974 c 4.204 0.799 7.309 4.502 7.309 8.836 c 0 3.112 -1.6 5.979 -4.213 7.621 v 7.225 C 59.281 42.001 57.359 43.923 54.997 43.923 z M 48.136 12.983 c -2.816 0 -5.346 1.675 -6.446 4.269 c -0.139 0.328 -0.442 0.557 -0.796 0.602 c -3.487 0.438 -6.116 3.422 -6.116 6.94 c 0 2.579 1.413 4.941 3.687 6.166 c 0.324 0.174 0.526 0.513 0.526 0.88 v 7.799 c 0 1.259 1.025 2.284 2.284 2.284 h 13.723 c 1.26 0 2.284 -1.025 2.284 -2.284 V 31.84 c 0 -0.368 0.202 -0.706 0.526 -0.88 c 2.273 -1.225 3.687 -3.587 3.687 -6.166 c 0 -3.518 -2.63 -6.502 -6.117 -6.94 c -0.354 -0.044 -0.656 -0.274 -0.796 -0.602 C 53.481 14.659 50.952 12.983 48.136 12.983 z" style="stroke: none; stroke-width: 1; stroke-dasharray: none; stroke-linecap: butt; stroke-linejoin: miter; stroke-miterlimit: 10; fill: #fff; fill-rule: nonzero; opacity: 1;" transform=" matrix(1 0 0 1 0 0) " stroke-linecap="round" />
	<path d="M 62.766 50.923 H 34.05 c -0.552 0 -1 -0.447 -1 -1 s 0.448 -1 1 -1 h 28.716 c 0.553 0 1 0.447 1 1 S 63.318 50.923 62.766 50.923 z" style="stroke: none; stroke-width: 1; stroke-dasharray: none; stroke-linecap: butt; stroke-linejoin: miter; stroke-miterlimit: 10; fill: #fff; fill-rule: nonzero; opacity: 1;" transform=" matrix(1 0 0 1 0 0) " stroke-linecap="round" />
	<path d="M 62.766 57.923 H 34.05 c -0.552 0 -1 -0.447 -1 -1 s 0.448 -1 1 -1 h 28.716 c 0.553 0 1 0.447 1 1 S 63.318 57.923 62.766 57.923 z" style="stroke: none; stroke-width: 1; stroke-dasharray: none; stroke-linecap: butt; stroke-linejoin: miter; stroke-miterlimit: 10; fill: #fff; fill-rule: nonzero; opacity: 1;" transform=" matrix(1 0 0 1 0 0) " stroke-linecap="round" />
</g>
</g>
</svg>